<?xml version="1.0" encoding="UTF-8" standalone="no"?>
<!-- Created with Inkscape (http://www.inkscape.org/) -->

<svg
   width="56.225494mm"
   height="67.663834mm"
   viewBox="0 0 56.225495 67.663834"
   version="1.1"
   id="svg1"
   inkscape:version="1.4.3 (0d15f75042, 2025-12-25)"
   sodipodi:docname="valhalla.svg"
   xmlns:inkscape="http://www.inkscape.org/namespaces/inkscape"
   xmlns:sodipodi="http://sodipodi.sourceforge.net/DTD/sodipodi-0.dtd"
   xmlns="http://www.w3.org/2000/svg"
   xmlns:svg="http://www.w3.org/2000/svg">
  <sodipodi:namedview
     id="namedview1"
     pagecolor="#ffffff"
     bordercolor="#666666"
     borderopacity="1.0"
     inkscape:showpageshadow="2"
     inkscape:pageopacity="0.0"
     inkscape:pagecheckerboard="0"
     inkscape:deskcolor="#d1d1d1"
     inkscape:document-units="mm"
     showguides="true"
     inkscape:zoom="0.70710678"
     inkscape:cx="218.496"
     inkscape:cy="209.30361"
     inkscape:window-width="1920"
     inkscape:window-height="1023"
     inkscape:window-x="0"
     inkscape:window-y="33"
     inkscape:window-maximized="1"
     inkscape:current-layer="layer1">
    <sodipodi:guide
       position="71.053434,75.632395"
       orientation="1,0"
       id="guide1"
       inkscape:locked="false" />
    <sodipodi:guide
       position="73.189201,81.282497"
       orientation="0,-1"
       id="guide2"
       inkscape:locked="false" />
    <sodipodi:guide
       position="66.939584,72.084867"
       orientation="0,-1"
       id="guide3"
       inkscape:locked="false" />
  </sodipodi:namedview>
  <defs
     id="defs1" />
  <g
     inkscape:label="Layer 1"
     inkscape:groupmode="layer"
     id="layer1">
    <path
       id="4"
       d="M 0.06946989,10.511589 C 0.47152468,7.4130618 1.6202359,4.4141769 3.4568274,1.6689051 c 1.3497989,-2.01760661 1.2845325,-2.04765563 1.238017,0.5709301 -0.059737,3.3664437 0.2776521,5.210848 1.3592943,7.4303836 1.0076013,2.0674882 3.0957626,4.3365432 4.7101123,5.1180552 0.285705,0.138348 0.550617,0.301813 0.588599,0.363232 0.03798,0.06142 0.119354,0.08053 0.180894,0.04257 0.06154,-0.03798 0.111903,-0.01177 0.111903,0.05817 0,0.06996 0.08305,0.12729 0.1845,0.12729 0.101446,0 0.304336,0.07705 0.450734,0.171279 0.594489,0.382584 3.315962,1.113734 3.44974,0.926829 0.266594,-0.372486 2.951047,-2.648031 3.75083,-3.17942 1.132965,-0.752907 3.300456,-1.938637 3.749868,-2.051381 0.164788,-0.04135 0.4785,-0.26431 0.697256,-0.495567 0.298566,-0.315634 0.836923,-0.600017 2.160159,-1.1413789 0.969377,-0.3965262 1.888874,-0.7200931 2.043326,-0.7191314 0.28126,0.00182 0.754592,0.1570957 1.542955,0.5061443 0.231375,0.1024068 0.839929,0.359746 1.352324,0.5716515 0.530662,0.2194775 1.037769,0.5200875 1.178157,0.6985775 0.142072,0.180655 0.911324,0.633432 1.81676,1.069502 0.863729,0.415876 1.888156,0.973104 2.276269,1.238015 0.38823,0.264915 0.755909,0.481745 0.81721,0.481745 0.0613,0 0.129693,0.04052 0.15169,0.09015 0.02199,0.04964 0.310461,0.303856 0.641002,0.565042 0.330537,0.261185 1.067821,0.927428 1.638509,1.480332 0.345801,0.335102 0.691728,0.670209 1.037529,1.005315 0.337991,-0.08029 0.675983,-0.160462 1.013974,-0.240752 4.540759,-1.078396 7.87583,-4.05913 9.28861,-8.3014417 0.591245,-1.7751715 0.705311,-2.6434659 0.714806,-5.4435474 0.0032,-0.8704577 0.0059,-1.74103575 0.0089,-2.6114939 0.260464,0.36719856 0.520809,0.73439666 0.781272,1.1015948 1.411699,1.9904423 2.134196,3.3206488 2.760898,5.0829595 1.297152,3.6477019 1.415306,6.9224357 0.367679,10.1834677 -0.836081,2.60248 -3.144922,5.661583 -5.953178,7.888089 -0.528859,0.419244 -1.083684,0.865292 -1.232966,0.991137 -0.149287,0.125841 -0.312029,0.228732 -0.361791,0.228732 -0.04976,0 -0.225125,0.121757 -0.389676,0.270439 -0.164546,0.148683 -0.446646,0.346405 -0.626579,0.439197 -0.179932,0.09279 -0.485951,0.309144 -0.679948,0.480781 -0.117551,0.103972 -0.235224,0.208058 -0.352774,0.312029 l 0.225006,1.262054 c 0.123679,0.694131 0.227292,1.451367 0.230177,1.682743 0.0045,0.364071 0.07127,0.458308 0.496286,0.701104 0.723819,0.413352 0.942333,0.998342 0.979594,2.621828 0.01,0.434867 0.01994,0.869739 0.02994,1.304606 0.209979,0.02117 0.419962,0.0422 0.629946,0.06334 1.032,0.103731 1.046782,0.13991 1.090775,2.674239 0.04352,2.508965 -0.0045,2.904892 -0.382221,3.152376 -0.150127,0.09832 -0.972384,0.31972 -1.827341,0.491839 -0.854952,0.172119 -1.646077,0.394363 -1.757981,0.493765 -0.111903,0.0994 -0.24412,0.351093 -0.293759,0.559032 -0.117314,0.491839 -0.104931,0.452053 -0.246403,0.798821 -0.26984,0.661436 -0.288348,0.947621 -0.06875,1.065653 0.265751,0.142913 1.217227,0.967696 2.054871,1.781305 0.759998,0.738242 0.766008,0.668528 -0.202292,2.381557 -0.373689,0.661078 -0.678386,1.229005 -0.677182,1.262058 0.0014,0.03307 -0.0412,0.114185 -0.09447,0.180292 -0.05325,0.06611 -0.25578,0.377173 -0.450377,0.691128 -0.283661,0.457945 -0.419723,0.571048 -0.686919,0.571888 -0.263829,9.09e-4 -1.785147,-0.488231 -3.277981,-1.053755 -0.34352,-0.13017 -0.419962,-0.08594 -0.989211,0.572011 -0.31455,0.363594 -0.658311,0.76072 -0.763964,0.882477 -0.178129,0.205295 -0.146638,0.34208 0.433909,1.8896 0.435708,1.161571 0.602661,1.760507 0.549656,1.971931 -0.05661,0.225728 -0.584031,0.643047 -2.054628,1.626129 -1.088131,0.727303 -2.096577,1.322396 -2.241053,1.322396 -0.175966,0 -0.665284,-0.4166 -1.482612,-1.262058 -0.670936,-0.694131 -1.289583,-1.262053 -1.374802,-1.262053 -0.08522,0 -0.528018,0.229813 -0.984042,0.510832 -0.736197,0.453616 -0.958442,0.69509 -1.023105,1.111809 -0.01022,0.06611 -0.03175,0.147242 -0.04784,0.180296 -0.01608,0.03307 -0.04892,0.168271 -0.07284,0.30049 -0.232216,1.280924 -0.629464,2.746351 -0.797617,2.942752 -0.195801,0.228731 -0.349289,0.242433 -2.714143,0.242433 -2.267614,0 -2.525432,-0.02067 -2.703802,-0.217793 -0.114427,-0.126445 -0.359386,-1.001831 -0.583792,-2.086841 -0.128849,-0.622972 -0.257699,-1.245949 -0.386549,-1.868922 -0.342558,-0.206258 -0.684875,-0.412394 -1.027434,-0.618529 -0.342557,-0.206254 -0.684995,-0.412389 -1.027554,-0.618648 -0.420685,0.442322 -0.84137,0.884522 -1.262055,1.326844 -0.92046,0.967696 -1.338741,1.325757 -1.545358,1.323114 -0.155773,-0.0023 -0.787523,-0.3553 -1.403886,-0.784997 -0.616364,-0.429703 -1.1784,-0.781277 -1.249195,-0.781277 -0.0708,0 -0.12861,-0.05409 -0.12861,-0.120194 0,-0.06611 -0.08113,-0.120194 -0.180294,-0.120194 -0.09916,0 -0.181495,-0.04061 -0.182938,-0.09015 -0.0015,-0.04952 -0.241954,-0.250851 -0.53451,-0.447129 -0.292556,-0.196282 -0.561555,-0.475616 -0.597974,-0.620692 -0.0399,-0.15914 0.175365,-0.920459 0.542804,-1.918924 0.69978,-1.901739 0.713722,-1.786833 -0.344721,-2.835782 -0.228493,-0.226446 -0.457105,-0.453016 -0.685597,-0.679467 -0.534631,0.197245 -1.069142,0.394486 -1.603773,0.591727 -0.881996,0.325367 -1.73118,0.591604 -1.886954,0.591604 -0.318398,0 -0.637037,-0.379822 -1.260973,-1.502447 C 9.8587096,48.818002 9.6476455,48.466428 9.6102648,48.433374 9.4037685,48.251038 8.6407656,46.615296 8.6407656,46.355069 c 0,-0.240752 0.2777724,-0.545808 1.2921048,-1.419151 0.7105976,-0.611919 1.3270816,-1.200757 1.3698716,-1.308572 0.04279,-0.107815 -0.08149,-0.693291 -0.27609,-1.300881 C 10.726643,41.38942 10.63265,41.219222 10.408004,41.206243 10.04934,41.185437 9.8536611,41.15023 8.4604719,40.855028 7.574028,40.667164 7.1796656,40.52341 6.9580244,40.307299 6.8579012,40.209578 6.7576582,40.111979 6.657535,40.014259 v -2.397422 c 0,-2.319298 0.00877,-2.406079 0.2680367,-2.665825 0.1719999,-0.172359 0.473331,-0.292077 0.8413704,-0.334384 0.1911115,-0.02199 0.3822226,-0.04388 0.5733342,-0.06587 0.0238,-0.460711 0.047717,-0.921541 0.071516,-1.382252 0.039305,-0.760239 0.1275278,-1.51747 0.1961596,-1.682743 0.1502446,-0.362027 0.6980971,-0.927669 0.9875283,-1.019498 0.1662309,-0.05277 0.2521708,-0.356862 0.4169598,-1.476607 0.114186,-0.77562 0.235103,-1.573119 0.268758,-1.772163 0.05781,-0.342321 0.0013,-0.402418 -1.0449828,-1.111813 C 8.627904,25.69317 8.0828163,25.355778 8.024882,25.355778 c -0.057934,0 -0.1052916,-0.05409 -0.1052916,-0.120194 0,-0.06611 -0.076685,-0.120195 -0.1703176,-0.120195 -0.093632,0 -0.1883467,-0.04688 -0.2103427,-0.10433 C 7.5169341,24.953608 7.0932445,24.58136 6.597437,24.183635 5.4496875,23.262934 3.3391694,21.057343 2.6095813,20.016085 2.3003175,19.574726 1.8405683,18.797061 1.5879168,18.28815 1.3352653,17.779239 1.0996817,17.335718 1.0644643,17.302664 1.0292483,17.269593 0.99859689,17.215524 0.99655352,17.18247 0.99450925,17.149398 0.84582823,16.66262 0.66637587,16.100708 0.11515807,14.375177 -0.13172401,12.062611 0.06948352,10.511603 Z M 28.833646,20.78833 v 0.240389 0.360587 0.480786 3.605874 c 0.04002,0.160221 0.08017,0.320561 0.120194,0.480782 0.08017,0.04002 0.160221,0.08017 0.240393,0.120194 0.240389,0.160221 0.480782,0.320565 0.721175,0.480786 l 0.120194,0.120195 c 0.195437,0 0.240393,-0.743894 0.240393,-1.991165 0,-1.095104 0.05276,-2.089603 0.117069,-2.209798 0.0643,-0.120194 0.525856,-0.481744 1.025513,-0.803391 0.499653,-0.321641 0.906754,-0.625257 0.904592,-0.674896 -0.0014,-0.03007 -0.0027,-0.0601 -0.0036,-0.09015 0.01,-0.390634 0.02008,-0.781272 0.03003,-1.171911 0.02271,-0.885961 -0.0066,-1.164573 -0.270439,-1.111808 -0.04002,0.04002 -0.08017,0.08017 -0.120199,0.120194 -0.08017,0.04002 -0.160221,0.08017 -0.240388,0.120195 -0.08017,0.04002 -0.160222,0.08017 -0.240393,0.120198 -0.04002,0.04002 -0.08017,0.08017 -0.120195,0.120195 -0.160221,0.08017 -0.320565,0.160221 -0.480786,0.240393 l -0.120194,0.120194 c -0.08017,0.04002 -0.160221,0.08017 -0.240393,0.120194 -0.04002,0.04002 -0.08017,0.08017 -0.120195,0.120199 -0.280415,0.160221 -0.560953,0.320561 -0.841369,0.480782 -0.04002,0.04002 -0.08017,0.08017 -0.120198,0.120194 -0.04002,0.04002 -0.08017,0.08017 -0.120195,0.120199 h -0.120194 c -0.08017,0.08017 -0.160221,0.160221 -0.240393,0.240388 -0.04002,0.04002 -0.08017,0.08017 -0.120194,0.120199 z M 10.590688,16.596981 C 9.948963,16.274735 8.3606958,15.244661 8.3011988,15.112083 8.279684,15.064247 8.0039544,14.819525 7.6883207,14.568197 6.7114894,13.790409 5.4097687,12.036272 4.5703213,10.366513 4.0717494,9.3747775 3.6146445,7.9896413 3.3490119,6.6653237 3.2296576,6.0703548 3.1273712,5.678276 3.1218421,5.7939043 3.1163135,5.9095326 3.0544119,6.004247 2.9844582,6.004247 c -0.069954,0 -0.096157,0.050362 -0.058175,0.1119023 0.037983,0.06154 0.016104,0.1445956 -0.0488,0.1847411 -0.064906,0.040145 -0.2786137,0.574776 -0.475134,1.1882557 -1.1483505,3.5850799 -0.9067572,7.2999689 0.6610767,10.1625529 0.770335,1.406412 1.4989619,2.323505 3.0873494,3.886049 1.2507573,1.230444 1.5946375,1.508339 1.7525746,1.416028 0.1080563,-0.0631 0.1424319,-0.117309 0.076325,-0.120317 -0.06755,-0.0032 -0.060579,-0.04411 0.015627,-0.09375 0.1389466,-0.09027 3.1723271,-5.621797 3.1663171,-5.773846 -0.0018,-0.04615 -0.258781,-0.212145 -0.570931,-0.368882 z m 36.242278,19.685908 c -0.611557,-0.0059 -3.978484,-0.01949 -7.482189,-0.03007 -2.123502,-0.0065 -4.246877,-0.01286 -6.370379,-0.01935 -0.100124,0.100119 -0.200366,0.200125 -0.30049,0.300245 -0.100119,0.100124 -0.200366,0.200007 -0.300486,0.300131 -0.02008,1.008682 -0.04002,2.017245 -0.0601,3.025927 -0.05998,3.019803 -0.0607,3.026531 -0.360588,3.360556 -0.165268,0.184139 -0.434985,0.445207 -0.599295,0.580306 -0.164305,0.135099 -0.867454,0.747859 -1.562543,1.361819 -1.269268,1.121186 -1.635747,1.335253 -1.96508,1.148229 -0.304097,-0.172718 -3.574385,-3.077611 -3.755039,-3.335671 -0.136182,-0.194361 -0.171519,-0.82238 -0.172841,-3.072328 -9.54e-4,-1.555334 -0.03137,-2.938786 -0.06779,-3.074248 -0.159981,-0.595688 -0.100003,-0.590882 -7.610196,-0.60158 -3.860208,-0.0055 -7.2136709,0.02153 -7.4521392,0.06022 -0.1444757,0.02344 -0.2890709,0.04676 -0.4335462,0.0702 -0.011421,0.436671 -0.022959,0.87346 -0.034376,1.310131 -0.018871,0.720575 0.013102,1.357371 0.071035,1.415306 0.057935,0.05793 0.7764651,0.240034 1.5968013,0.404702 0.8203361,0.164665 1.6234841,0.395563 1.7845471,0.513236 0.161062,0.117669 0.359265,0.426936 0.440397,0.687399 0.08113,0.260463 0.344601,1.114457 0.585714,1.897768 0.146158,0.474776 0.292196,0.94943 0.438354,1.424201 -0.09183,0.134018 -0.183659,0.268159 -0.275489,0.402177 -0.151567,0.221159 -0.398209,0.458068 -0.548213,0.526337 -0.150004,0.06827 -0.272604,0.178729 -0.272604,0.245441 0,0.06671 -0.20289,0.254695 -0.450734,0.417678 -0.247844,0.162988 -0.635114,0.453379 -0.860482,0.645091 -0.136542,0.116233 -0.273205,0.232339 -0.409747,0.348572 0.211424,0.369477 0.423089,0.739082 0.634514,1.108565 0.348928,0.609752 0.699058,1.133445 0.778267,1.163855 0.07921,0.03039 0.856395,-0.217193 1.727214,-0.550137 0.870698,-0.332944 1.632259,-0.605428 1.692236,-0.605428 0.106254,0 0.358905,0.25638 2.169775,2.200667 1.021303,1.096544 1.009644,0.940652 0.221641,2.967755 -0.295562,0.760239 -0.511554,1.453166 -0.480183,1.539948 0.05577,0.154088 2.098739,1.58514 2.262927,1.58514 0.04555,0 0.64449,-0.553258 1.330687,-1.229359 0.686198,-0.676105 1.317466,-1.268427 1.402685,-1.316145 0.12921,-0.07224 2.247061,1.126473 3.447456,1.951256 0.224165,0.154093 0.338112,0.49545 0.646775,1.939122 l 0.374647,1.752093 c 0.487637,0.0067 0.97527,0.01345 1.462906,0.02022 1.750649,0.02417 1.62096,0.141709 1.910993,-1.734908 0.113462,-0.734517 0.405057,-1.660383 0.585594,-1.859909 0.341594,-0.377414 3.172687,-2.046455 3.471374,-2.046455 0.197963,0 0.628383,0.377055 1.505572,1.318671 0.409505,0.439555 0.819014,0.879111 1.228518,1.318666 l 1.19571,-0.796177 c 0.657589,-0.437874 1.195706,-0.851345 1.195706,-0.919015 0,-0.06767 -0.272484,-0.850146 -0.605546,-1.738756 -0.591722,-1.57877 -0.600735,-1.622881 -0.399411,-1.932026 0.320325,-0.491839 2.604884,-2.895034 2.81643,-2.962826 0.103849,-0.0333 0.899304,0.210465 1.767598,0.541723 0.868294,0.331259 1.623363,0.602303 1.677932,0.602303 0.117555,0 1.35377,-2.058353 1.35377,-2.254031 0,-0.07416 -0.365036,-0.438956 -0.811324,-0.810723 -1.353283,-1.127437 -1.832988,-1.625649 -1.832266,-1.902939 3.59e-4,-0.143513 0.186783,-0.852309 0.414075,-1.575169 0.227292,-0.722855 0.394722,-1.344869 0.372008,-1.382248 -0.09592,-0.157818 0.380058,-0.917815 0.656026,-1.047627 0.165028,-0.07765 0.922024,-0.265274 1.682263,-0.417082 0.760238,-0.151808 1.4498,-0.325489 1.532497,-0.385827 0.104931,-0.07668 0.150246,-0.522013 0.150246,-1.477325 v -1.367588 c -0.370564,-0.0036 -0.74125,-0.0071 -1.111813,-0.01072 z M 14.046558,17.909641 c -0.295802,-0.07585 -0.678866,-0.183903 -0.851107,-0.240034 -0.17224,-0.05613 -0.369361,-0.06695 -0.437753,-0.02417 -0.113224,0.0708 -2.445023,4.264426 -3.1928806,5.741996 -0.347847,0.687399 -0.3331828,0.734154 0.398088,1.266742 0.8180526,0.59581 0.8648096,0.575976 1.2579696,-0.531144 0.457946,-1.28946 1.428046,-3.242642 2.274705,-4.579702 0.370804,-0.585594 0.674178,-1.093419 0.674178,-1.128636 0,-0.03521 0.09327,-0.132096 0.207338,-0.215512 0.182938,-0.133777 0.143994,-0.167794 -0.330538,-0.289551 z m 13.030788,2.576277 c -0.172605,-0.15998 -0.429584,-0.326934 -0.570934,-0.371045 -0.141351,-0.04411 -0.284023,-0.11467 -0.317077,-0.156736 -0.120312,-0.153371 -1.643074,-1.092942 -1.771203,-1.092942 -0.07248,0 -0.153129,-0.0637 -0.179092,-0.141469 -0.02596,-0.07777 -0.111541,-0.101687 -0.190269,-0.05301 -0.102768,0.06358 -0.143154,0.747256 -0.143154,2.425192 v 2.336724 h -0.721174 -0.721175 v -3.255503 -3.255621 c 0.137504,-0.121762 0.275008,-0.243396 0.412512,-0.365158 0.226929,-0.200848 0.537876,-0.427653 0.691126,-0.503977 0.266594,-0.132696 0.280056,-0.204814 0.312268,-1.667838 0.02596,-1.179842 -0.0015,-1.529131 -0.120196,-1.529013 -0.372606,2.41e-4 -3.220886,1.560263 -3.318966,1.817842 -0.022,0.05782 -0.09784,0.105171 -0.168394,0.105171 -0.20842,0 -2.312207,1.759667 -2.990111,2.501157 -0.927311,1.01421 -1.909791,2.254149 -1.909791,2.410164 0,0.07536 -0.05409,0.136902 -0.120196,0.136902 -0.06611,0 -0.120195,0.08113 -0.120195,0.180296 0,0.09916 -0.05409,0.180292 -0.120196,0.180292 -0.06611,0 -0.120196,0.08113 -0.120196,0.180296 0,0.09916 -0.05048,0.180291 -0.112143,0.180291 -0.06166,0 -0.150004,0.121757 -0.196399,0.27044 -0.0464,0.148682 -0.126687,0.297846 -0.178371,0.331381 -0.236305,0.153371 -1.754859,3.54878 -1.840919,4.116347 -0.0125,0.08233 -0.05902,0.207576 -0.103248,0.278372 -0.04423,0.0708 -0.107936,0.260104 -0.14135,0.420684 -0.03341,0.160585 -0.143995,0.556266 -0.245681,0.879111 -0.101685,0.32285 -0.266474,1.080081 -0.366116,1.682743 -0.09964,0.602661 -0.206977,1.244386 -0.238348,1.426245 -0.01899,0.110218 -0.0381,0.220318 -0.05709,0.330536 h 4.864925 4.864924 v 0.781272 c 0,0.659397 -0.03281,0.783198 -0.210343,0.793174 -0.115748,0.0065 -2.440936,0.0018 -5.167096,-0.01072 -3.915979,-0.01781 -5.034161,0.01118 -5.325636,0.138348 -0.12296,0.0536 -0.24592,0.107333 -0.36888,0.160939 0.01238,0.410949 0.02464,0.821898 0.03702,1.232847 0.01238,0.410949 0.02464,0.821899 0.03702,1.232848 2.043328,-0.01036 4.086657,-0.02053 6.129985,-0.03089 2.043329,-0.01036 4.086657,-0.02058 6.129985,-0.03089 0.02007,-0.90147 0.04003,-1.802936 0.0601,-2.704407 0.04712,-2.11845 0.09892,-2.76306 0.23931,-2.974843 0.09856,-0.148682 0.218636,-0.270444 0.266955,-0.270444 0.156976,0 4.116705,-2.53709 4.27152,-2.736857 0.108896,-0.140509 0.150245,-0.866731 0.150245,-2.64058 v -2.446707 c -0.104571,-0.097 -0.209261,-0.193997 -0.31395,-0.290991 z m -3.111631,10.158466 c -0.03305,0 -0.0601,0.02703 -0.0601,0.0601 0,0.03307 0.02704,0.0601 0.0601,0.0601 0.03305,0 0.0601,-0.02703 0.0601,-0.0601 0,-0.03307 -0.02704,-0.0601 -0.0601,-0.0601 z m 1.866521,1.259773 c -0.860482,-0.560713 -1.615432,-1.01938 -1.677453,-1.01938 -0.195198,0 -0.23306,0.370082 -0.22753,2.227346 0.0018,0.60218 0.0036,1.204483 0.0054,1.806662 0.566483,0.362273 1.132725,0.724664 1.699208,1.086932 0.566482,0.362268 1.132841,0.724659 1.699328,1.086932 0.01095,-0.694854 0.02185,-1.389707 0.0328,-2.084556 0.01095,-0.694854 0.0219,-1.389585 0.0328,-2.084438 -0.521531,-0.339791 -1.043062,-0.679703 -1.564588,-1.019498 z m -1.145346,-14.7217 c -0.03305,0 -0.0601,0.02703 -0.0601,0.0601 0,0.03307 0.02704,0.0601 0.0601,0.0601 0.03305,0 0.0601,-0.02703 0.0601,-0.0601 0,-0.03307 -0.02704,-0.0601 -0.0601,-0.0601 z m 3.530389,10.078175 -3.465724,2.121816 c 0.02536,0.01504 3.360916,2.237087 3.360916,2.237087 l 3.359112,-2.22747 c 0,0 -3.224962,-2.098872 -3.254304,-2.131433 z m 3.179783,-10.217604 c -0.31888,-0.280897 -3.161153,-2.024096 -3.300336,-2.024096 -0.14652,0 -2.072777,1.221427 -2.127709,1.349199 -0.02199,0.0512 -0.09038,0.09315 -0.151926,0.09315 -0.232579,0 -0.947023,0.548815 -0.948465,0.728507 -0.0013,0.172241 2.399469,1.795604 2.655607,1.795604 0.05913,0 0.107452,0.04832 0.107452,0.107216 0,0.05889 0.138347,0.14195 0.307582,0.18438 0.247725,0.06214 0.592926,-0.102891 1.77289,-0.847984 0.805912,-0.508788 1.492348,-0.962285 1.525402,-1.007723 0.03307,-0.04543 0.131855,-0.105648 0.2196,-0.133777 0.120076,-0.03848 0.105289,-0.0988 -0.0601,-0.244477 z m -1.09102,-5.612301 c -0.247844,-0.125125 -0.838603,-0.396767 -1.312657,-0.603624 -0.287388,-0.125364 -0.574777,-0.250608 -0.862043,-0.375972 -0.439796,0.186303 -0.879474,0.372486 -1.31927,0.55879 -0.439797,0.186304 -0.879593,0.372487 -1.31939,0.55879 -0.0058,0.511553 -0.01166,1.022986 -0.01743,1.53454 -0.0096,0.844013 0.02945,1.563507 0.08666,1.598846 0.09471,0.05853 1.447159,-0.683674 1.588991,-0.872024 0.03307,-0.04388 0.282582,-0.177888 0.554584,-0.297724 0.164787,-0.0726 0.329696,-0.145316 0.494483,-0.217915 0.426095,0.263348 0.852304,0.526819 1.278403,0.790167 0.426095,0.263348 0.852304,0.526819 1.278404,0.790167 v -1.618194 -1.618197 c -0.15025,-0.07584 -0.300495,-0.151807 -0.450736,-0.22765 z m 0.384146,26.39896 c -0.0412,-0.0412 -0.594847,0.245322 -1.230444,0.636797 -0.635593,0.391478 -1.244028,0.711802 -1.351961,0.711802 -0.107938,0 -0.747137,-0.349289 -1.420476,-0.776224 -0.408064,-0.258665 -0.816129,-0.517443 -1.224193,-0.776107 0.01082,0.785242 0.02176,1.57048 0.03257,2.355718 0.02981,2.157995 0.05144,2.367016 0.2583,2.489013 0.124164,0.0732 0.583913,0.470088 1.021665,0.881878 0.437752,0.41179 0.890531,0.780672 1.006278,0.819495 0.115751,0.03884 0.210342,0.119354 0.210342,0.178852 0,0.219477 0.455542,-0.08919 1.586226,-1.074549 0.386431,-0.336792 0.77274,-0.673456 1.159167,-1.010248 0.0046,-0.726945 0.0091,-1.453766 0.01372,-2.18071 0.0076,-1.199435 -0.01994,-2.21449 -0.06118,-2.255717 z m -1.856542,-5.021779 v 4.318876 c 0.03442,-0.0361 3.444742,-2.176477 3.444742,-2.176477 0.05924,1.41e-4 0,-4.211759 0,-4.211759 z M 45.93751,32.015097 c -0.118995,-0.05613 -2.582771,-0.120557 -5.474925,-0.143272 -1.752811,-0.01381 -3.505749,-0.02753 -5.258565,-0.04134 v -2.788064 -2.78806 c -0.502056,-0.309984 -1.003994,-0.620092 -1.506054,-0.930076 -0.828267,-0.511551 -1.558455,-0.930073 -1.622641,-0.930073 -0.06419,0 -0.116592,-0.05734 -0.116592,-0.12729 0,-0.06995 -0.05409,-0.09387 -0.120194,-0.05301 -0.07104,0.04388 -0.120076,0.772259 -0.119953,1.779982 1.18e-4,0.568527 1.18e-4,1.137171 2.4e-4,1.705698 0.174404,0.110218 0.348808,0.220318 0.523212,0.330536 0.287748,0.181859 0.585112,0.330541 0.660837,0.330541 0.07572,0 0.137621,0.05409 0.137621,0.120195 0,0.06611 0.06755,0.121879 0.150245,0.123923 0.0827,0.0018 0.247484,0.137503 0.366356,0.30085 0.190754,0.262144 0.218997,0.610956 0.240394,2.970999 0.008,0.891372 0.01622,1.782744 0.02426,2.674116 2.04597,0.01036 4.092062,0.02081 6.138036,0.03112 2.045973,0.01036 4.092065,0.02081 6.138041,0.03112 0.0094,-0.415997 0.01863,-0.831993 0.02803,-1.247994 0.02476,-1.10027 0.0023,-1.260009 -0.188345,-1.349916 z M 32.499617,12.735209 c -0.03307,0 -0.0601,0.02703 -0.0601,0.0601 0,0.03307 0.02703,0.0601 0.0601,0.0601 0.03307,0 0.0601,-0.02703 0.0601,-0.0601 0,-0.03307 -0.02703,-0.0601 -0.0601,-0.0601 z m 12.088088,15.925946 c -0.41924,-2.344301 -1.10484,-4.429575 -2.120372,-6.448506 -0.509992,-1.013969 -1.235614,-2.186842 -1.389221,-2.245618 -0.05758,-0.02199 -0.104694,-0.09363 -0.104694,-0.158899 0,-0.06527 -0.06755,-0.189427 -0.150245,-0.275727 -0.08269,-0.0863 -0.231376,-0.280057 -0.330537,-0.430542 -0.73091,-1.109169 -3.494211,-3.847348 -4.102642,-4.065264 -0.06527,-0.0233 -0.247484,-0.161902 -0.405061,-0.30794 -0.157577,-0.146039 -0.492321,-0.370323 -0.744012,-0.498453 -0.251691,-0.128126 -0.484629,-0.266715 -0.517683,-0.307941 -0.143394,-0.178851 -2.064604,-1.067938 -2.168694,-1.003634 -0.06322,0.03907 -0.115024,0.736797 -0.115024,1.550282 v 1.479251 l 0.631026,0.406743 c 0.210343,0.135581 0.420685,0.271284 0.631027,0.406865 0.02176,0.580906 0.04338,1.16193 0.06515,1.742835 0.0358,0.958565 0.07644,1.675293 0.09014,1.592595 0.01372,-0.08269 0.08209,-0.150245 0.151808,-0.150245 0.06971,0 0.48547,-0.216353 0.923944,-0.480782 0.438475,-0.264429 0.876472,-0.480782 0.97347,-0.480782 0.09699,0 0.875863,0.432705 1.731056,0.961564 0.855193,0.528863 1.604015,0.961568 1.664231,0.961568 0.06022,0 0.1095,0.05409 0.1095,0.120194 0,0.06611 0.05144,0.120199 0.114425,0.120199 0.150727,0 1.70666,1.081639 1.89621,1.318184 0.10986,0.137144 0.140628,0.995944 0.120194,3.363559 l -0.02739,3.179302 c -0.233302,0.177289 -0.466599,0.354577 -0.6999,0.531866 -0.412871,0.313828 -0.65579,0.576217 -0.592204,0.639799 0.05926,0.05926 1.103636,0.09292 2.320979,0.07488 1.860272,-0.02767 2.217011,-0.06154 2.236364,-0.213109 0.01276,-0.09916 -0.07356,-0.721175 -0.191835,-1.382248 z m -5.597638,-6.160036 c -0.229454,-0.148682 -0.467562,-0.270439 -0.529099,-0.270439 -0.06154,0 -0.129935,-0.04388 -0.151931,-0.09748 -0.05745,-0.139788 -2.232875,-1.465069 -2.404994,-1.465069 -0.229817,0 -3.336515,1.969169 -3.340604,2.117492 -0.0036,0.139429 2.917271,2.032991 3.250697,2.107271 0.104208,0.02321 0.861444,-0.372844 1.682742,-0.880193 2.101742,-1.298232 1.992605,-1.187896 1.493189,-1.511582 z m 1.037651,1.672767 c -0.05733,0.02199 -0.84161,0.49977 -1.74284,1.061569 -0.546166,0.340513 -1.092338,0.68103 -1.638509,1.021542 4.55e-4,0.621051 0.0014,1.242102 0.0018,1.863157 9.09e-4,1.024786 0.04447,1.930104 0.09652,2.012075 0.06863,0.108056 0.456387,-0.07212 1.410377,-0.655426 0.723701,-0.44244 1.381771,-0.888247 1.462302,-0.990415 0.08053,-0.102164 0.148083,-0.138706 0.150245,-0.08101 0.0023,0.05769 0.08498,0.03761 0.184144,-0.0447 0.147238,-0.122238 0.180291,-0.522853 0.180291,-2.188287 0,-1.121185 -0.04699,-2.020489 -0.10433,-1.998492 z m -0.07596,5.869517 c -0.03307,0 -0.0601,0.02703 -0.0601,0.0601 0,0.03307 0.02703,0.0601 0.0601,0.0601 0.03307,0 0.0601,-0.02703 0.0601,-0.0601 0,-0.03307 -0.02703,-0.0601 -0.0601,-0.0601 z m 0.120195,0.120199 c -0.03307,0 -0.0601,0.02703 -0.0601,0.0601 0,0.03307 0.02703,0.0601 0.0601,0.0601 0.03307,0 0.0601,-0.02703 0.0601,-0.0601 0,-0.03307 -0.02703,-0.0601 -0.0601,-0.0601 z m 5.208562,-9.435369 c -0.934038,-1.718803 -1.709064,-3.139275 -1.722165,-3.156706 -0.0744,-0.09856 -1.623363,0.413117 -1.623363,0.536196 0,0.08149 0.354577,0.689325 0.788004,1.350761 0.857955,1.309413 1.882986,3.378223 2.398988,4.841606 0.109015,0.309144 0.218034,0.618407 0.327054,0.927551 0.184621,-0.127049 0.36936,-0.254217 0.553981,-0.381262 0.744134,-0.512031 0.980679,-0.722137 0.978035,-0.869498 -0.0014,-0.06791 -0.766489,-1.529849 -1.700534,-3.248648 z m 9.31614,-9.615665 c -0.10157,-1.2610942 -0.341959,-2.4087234 -0.787647,-3.7609262 -0.267795,-0.812403 -0.542323,-1.458696 -0.609993,-1.436099 -0.06767,0.022596 -0.244836,0.5845117 -0.393882,1.2488338 -0.382102,1.7035352 -1.088131,3.4278634 -1.871688,4.5708054 -0.189427,0.276331 -0.344361,0.560354 -0.344361,0.631027 0,0.07068 -0.04061,0.128971 -0.09015,0.129452 -0.04952,4.54e-4 -0.215389,0.184621 -0.368401,0.409387 -0.763359,1.121066 -3.311634,3.227496 -4.625612,3.82343 -0.421768,0.19123 -0.44569,0.228009 -0.311908,0.480781 0.633191,1.196187 3.146727,5.813991 3.187835,5.856421 0.06238,0.06442 0.196759,-0.0607 1.948012,-1.814476 1.6456,-1.648003 1.702572,-1.710867 1.702572,-1.875295 0,-0.07164 0.04844,-0.148201 0.107697,-0.170197 0.05926,-0.02199 0.340394,-0.391597 0.624776,-0.821176 0.569966,-0.861203 1.162052,-2.194057 1.468434,-3.305988 0.191712,-0.695812 0.458427,-2.75044 0.421166,-3.244805 -0.01,-0.132215 -0.03557,-0.456744 -0.05685,-0.721175 z"
       fill="#e0dfd3"
       stroke="none"
       style="stroke-width:0.120196"
       sodipodi:nodetypes="cccccscssccccscccccccscsccccccccccsssscccsccccccsscsccsccccccscccscsccsccssscccccsssscsccsccsscscscccccscccccccccssssscscsccccccccccccssscccccscccccccsccsccsccccsssscccccccsscccscccsccccccsccsssscccssscccccssccsscccccccscccscccsssccsccscsccccscccccsscccscsscsccccccccccscsssssssccssssccccsccccscsccsssscccssssscsccscscccsssssccccccscscsscccccsccsccccscscccsscssccccscsccccccccccccccccssccccsscccccccccssssssccssccssscscscccsssssssccccsccsscscscsccccccccsccsccssssssssssscscscccsccsccsccccccsscccc" />
    <path
       id="path1"
       d="m 1.3585696,21.148918 c 0.027402,0 0.4030165,0.423569 0.8348801,0.94137 0.2617866,0.313833 0.5234524,0.627665 0.7852391,0.941498 0.014546,2.86138 0.02897,5.722638 0.043511,8.584019 0.042307,8.328249 0.051805,8.62898 0.3187592,10.086593 1.1100081,6.062075 4.2658688,11.49733 9.085961,15.648289 0.528861,0.455424 1.042698,0.900026 1.14186,0.98813 0.803268,0.713243 4.589916,3.324136 4.63523,3.195888 0.01166,-0.03307 0.06923,0.0032 0.127889,0.08017 0.404218,0.531507 5.455927,3.180142 7.436753,3.899154 0.964211,0.350008 1.218905,0.392678 2.343819,0.392319 1.15532,-3.63e-4 1.368788,-0.0387 2.524112,-0.453138 2.114725,-0.758558 7.668729,-3.754438 8.657222,-4.669728 0.124883,-0.115747 0.263707,-0.210342 0.308181,-0.210342 0.149042,0 2.453194,-1.704135 2.453194,-1.814358 0,-0.05986 0.04544,-0.09531 0.100846,-0.07873 0.218156,0.06503 2.935783,-2.389853 4.363348,-3.94158 0.871542,-0.947381 2.257038,-2.828686 3.039273,-4.127041 1.824089,-3.027494 2.926648,-6.091886 3.516689,-9.773961 0.166708,-1.040659 0.206013,-2.571589 0.245799,-9.584774 0.01576,-2.782053 0.03176,-5.564225 0.04748,-8.346274 0.120317,-0.142677 0.240634,-0.285349 0.360947,-0.428022 0.660114,-0.782593 1.088494,-1.227196 1.136453,-1.179237 0.111781,0.111781 0.04266,17.891621 -0.07356,18.900788 -0.193516,1.681058 -0.664081,3.817175 -1.218061,5.529006 -0.278135,0.8594 -0.509751,1.589587 -0.514798,1.622641 -0.005,0.03307 -0.423574,0.898463 -0.930077,1.923136 -2.076143,4.19964 -4.819851,7.503102 -8.93247,10.754635 -0.330541,0.261308 -0.644251,0.544731 -0.697139,0.629709 -0.05288,0.08498 -0.151326,0.154452 -0.218756,0.154452 -0.105652,0 -2.342375,1.494751 -2.509806,1.677209 -0.03307,0.03607 -0.222362,0.15313 -0.420689,0.259987 -0.429579,0.231616 -2.711617,1.617952 -2.887102,1.753897 -0.06743,0.05228 -0.82466,0.446646 -1.682738,0.876344 -0.858078,0.429702 -1.578171,0.822139 -1.60029,0.872142 -0.02221,0.05 -0.08978,0.06034 -0.150245,0.02294 -0.06046,-0.03739 -0.109978,-0.01058 -0.109978,0.05938 0,0.06995 -0.04061,0.118391 -0.09015,0.107574 -0.196518,-0.04293 -0.751221,0.173564 -0.751221,0.293159 0,0.06995 -0.03294,0.09423 -0.0732,0.05397 -0.04025,-0.04025 -0.34809,0.03512 -0.684038,0.167554 -0.933079,0.367797 -2.471582,0.705188 -3.220046,0.706147 -0.704343,9.08e-4 -2.114484,-0.316595 -3.234466,-0.728266 -0.669851,-0.246158 -4.45686,-2.03876 -4.56744,-2.161962 -0.03305,-0.0368 -0.519847,-0.328615 -1.081762,-0.648453 C 17.403627,63.092424 13.98045,60.799929 12.793036,59.822497 11.96056,59.137138 10.521937,57.860902 9.9629058,57.311605 9.1257426,56.488984 7.5589903,54.784491 7.5589903,54.696146 c 0,-0.04352 -0.1568554,-0.251091 -0.3486879,-0.46107 C 7.0184699,54.025093 6.8427436,53.810303 6.819666,53.757656 6.7965884,53.705009 6.3636433,53.039847 5.8576189,52.279609 4.8716529,50.798436 3.7940974,48.757273 3.2872317,47.410596 3.1153518,46.953855 2.9395055,46.523912 2.896355,46.455043 2.8532026,46.386169 2.8086124,46.275828 2.7971935,46.209721 2.7857774,46.143613 2.6093274,45.530735 2.4049949,44.847901 1.9576262,43.352305 1.5970388,41.481939 1.4312886,39.796552 1.3161409,38.625487 1.2479902,21.148899 1.3585701,21.148899 Z"
       fill="#e0dfd3"
       stroke="none"
       style="stroke-width:0.120196" />
    <path
       id="path2"
       d="m 7.7064702,8.9016868 c 0.1502447,-0.056973 2.1122002,-0.7006211 4.3598618,-1.43045 9.372747,-3.0431171 13.193051,-4.2508442 13.96579,-4.4145511 0.970458,-0.205655 3.130979,-0.230776 4.027639,-0.046876 0.350371,0.071877 1.177798,0.29472 1.838875,0.4954469 0.661078,0.2007268 1.283092,0.3812609 1.382253,0.4010935 0.09916,0.019834 0.193756,0.046997 0.210342,0.060338 0.01658,0.013342 0.07068,0.031854 0.120194,0.041108 0.04952,0.00925 0.144235,0.050362 0.210347,0.091349 0.105289,0.065266 4.252646,1.4095361 4.567437,1.4804516 0.06611,0.014905 0.266955,0.087382 0.44617,0.1610625 0.17921,0.07368 0.449649,0.150966 0.600976,0.1717595 0.151326,0.020792 0.329096,0.069954 0.395204,0.1091379 0.124405,0.0738 0.927433,0.3440006 1.179119,0.3966461 0.07873,0.016468 0.288352,0.089666 0.465999,0.1627452 0.317317,0.1305324 2.621351,0.860722 2.900209,0.9191373 0.07825,0.016345 0.287384,0.089426 0.464554,0.1622641 0.177171,0.072839 1.123713,0.3858288 2.103429,0.6954528 0.979717,0.3096245 1.798126,0.5773005 1.819041,0.5949694 0.0209,0.017667 -0.126926,0.3586639 -0.328374,0.7578345 -0.12212,0.241954 -0.244236,0.483789 -0.366357,0.725743 -0.291113,-0.09508 -0.582468,-0.190271 -0.873582,-0.285345 C 45.008994,9.4365591 37.904098,7.1754357 37.792558,7.1583678 37.724047,7.1479102 37.613947,7.1072846 37.54784,7.0679809 37.078474,6.7892468 30.012525,4.6576945 29.191707,4.5472346 c -0.956034,-0.1286094 -2.938186,0.00673 -3.29096,0.2247662 -0.07031,0.043511 -0.209862,0.086421 -0.310225,0.095556 -0.100364,0.00914 -1.291264,0.3811405 -2.646471,0.8265862 C 21.588843,6.1395887 20.209597,6.588039 19.879058,6.6908065 19.54852,6.793574 19.223991,6.9094426 19.157883,6.948386 19.091773,6.987327 18.983599,7.027836 18.917492,7.038413 18.700659,7.07327 15.555015,8.0755827 15.431814,8.1491425 15.365704,8.1885655 15.209813,8.2367655 15.08541,8.2561167 14.905957,8.2840001 8.887033,10.207134 8.3170647,10.418679 8.2358125,10.448848 8.0134499,10.154488 7.8035882,9.7386112 7.6801472,9.4941327 7.5568261,9.2497746 7.433385,9.0052966 7.5244934,8.9707983 7.6153614,8.9361838 7.7064702,8.9016868 Z"
       fill="#e0dfd3"
       stroke="none"
       style="stroke-width:0.120196" />
    <path
       id="path3"
       d="m 16.062842,37.64026 c 0.27044,0.0119 0.540881,0.02367 0.811322,0.03557 0.02837,0.340512 0.05685,0.681148 0.08522,1.02166 0.163946,1.964962 1.067338,4.284982 2.281556,5.859187 0.663962,0.86084 1.834067,1.935993 3.276777,3.011023 1.290302,0.961449 4.681505,3.227378 5.317342,3.552868 0.12789,0.06551 0.255898,0.131015 0.383784,0.196523 0.328978,-0.220201 0.657834,-0.440401 0.986807,-0.660596 0.542805,-0.363354 1.010127,-0.660597 1.038374,-0.660597 0.125,0 2.916671,-1.976382 2.916671,-2.064844 0,-0.05433 0.06911,-0.09868 0.153489,-0.09868 0.08438,0 0.331141,-0.162265 0.548334,-0.360587 0.217192,-0.198327 0.44905,-0.360588 0.51528,-0.360588 0.166712,0 2.869553,-2.712222 2.869553,-2.879534 0,-0.07452 0.103249,-0.246281 0.229454,-0.381739 0.8975,-0.963371 1.92061,-4.183295 1.933107,-6.083953 9.08e-4,-0.104689 0.237867,-0.150245 0.782235,-0.150245 0.260463,0 0.520808,0 0.781272,0 0,0.17032 -1.18e-4,0.340517 -1.18e-4,0.510832 -1.23e-4,0.280897 -0.07837,0.955077 -0.173923,1.498122 -0.491602,2.793111 -1.645359,5.091976 -3.552027,7.077608 -1.165778,1.213981 -4.548571,3.673308 -7.909963,5.750527 -1.075393,0.664567 -1.133569,0.685477 -1.49764,0.534632 -0.208303,-0.0863 -1.597883,-0.97058 -3.087952,-1.964838 -1.490067,-0.994263 -2.7633,-1.829504 -2.829408,-1.855943 -0.06611,-0.02644 -0.14724,-0.08246 -0.180294,-0.124406 -0.05565,-0.07055 -0.351453,-0.298446 -1.066137,-0.821176 -0.597012,-0.43667 -2.509087,-2.397907 -2.898281,-2.972921 -0.223804,-0.330542 -0.440517,-0.628024 -0.481624,-0.661078 -0.166832,-0.134018 -1.08645,-2.16665 -1.361819,-3.010186 -0.312629,-0.957597 -0.682712,-2.891667 -0.682712,-3.567169 0,-0.134981 0,-0.269962 0,-0.404939 0.270441,0.0119 0.540881,0.02358 0.811322,0.03543 z"
       fill="#e0dfd3"
       stroke="none"
       style="stroke-width:0.120196" />
    <path
       id="path4"
       d="M 32.199127,30.764578 C 0,0 0,0 32.199127,30.764578 Z"
       fill="#989ea2"
       stroke="none"
       style="stroke-width:0.120196"
       sodipodi:nodetypes="cc" />
    <path
       id="7"
       d="m 32.319321,20.908525 c -0.04663,-1.770243 -0.100724,-2.284082 -0.150245,-2.28396 -0.03003,1.18e-4 -0.0601,1.18e-4 -0.09014,2.41e-4 0.26383,-0.05277 0.293158,0.225847 0.27044,1.111808 -0.01,0.390639 -0.02008,0.781277 -0.03003,1.171911 z"
       fill="#b2b5b4"
       stroke="none"
       style="stroke-width:0.120196" />
  </g>
</svg>
